# xmcd CD database file
#
# Track frame offsets:
#	150
#	20361
#	28761
#	51939
#
# Disc length: 960 seconds
#
# Revision: 0
# Processed by: cddbd v1.5.1PL0 Copyright (c) Steve Scherf et al.
# Submitted via: CDex 1.51
#
DISCID=2b03be04
DTITLE=つきよみ - 素顔
DYEAR=2005
DGENRE=JPop
TTITLE0=素顔
TTITLE1=素顔 ~reprise~
TTITLE2=茜
TTITLE3=素顔(Instrumental)
EXTD=YEAR: 2005
EXTT0=
EXTT1=
EXTT2=
EXTT3=
PLAYORDER=
